<svg width="442" height="57" viewBox="0 0 442 57" fill="none" xmlns="http://www.w3.org/2000/svg">
<path d="M24.3178 20.32L25.6778 23.36L28.8778 30.32L29.5178 31.6H42.5578V42.8H28.3978C20.6378 41.68 14.7978 35.2 14.7978 27.68C14.7978 20.08 20.6378 13.6 28.3978 12.48H53.6778V1.28001H30.7178C23.5178 1.28001 16.7978 4 11.7578 8.88C6.55781 13.92 3.75781 20.56 3.75781 27.68C3.75781 34.8 6.55781 41.44 11.7578 46.4C16.7978 51.36 23.5178 54 30.7178 54H53.8378V31.6V20.32H24.3178ZM60.8284 50.88L59.1484 54H73.2284L73.7884 52.96L85.2284 32.24L78.1884 19.6L60.8284 50.88ZM118.588 50.88L96.1884 10.48L91.5484 2.16001L91.0684 1.04001H88.3484L87.7884 2.16001L83.2284 10.48L82.6684 11.52L89.7084 24.24L89.8684 24.56L95.0684 33.92L105.628 52.96L106.188 54H120.268L118.588 50.88ZM126.727 54H137.927V36.16L126.727 24.96V54ZM171.847 0.800003L150.647 22L140.167 11.52L129.447 0.800003H126.727V13.92L137.927 25.12L143.127 30.32L150.647 37.84L152.167 36.4L154.167 34.32L154.807 33.68L157.127 31.44L163.047 25.44V54H174.247V0.800003H171.847ZM182.43 1.12001V54H193.63V1.12001H182.43ZM232.848 22H217.648C215.008 22 212.848 19.84 212.848 17.2C212.848 14.56 215.008 12.4 217.648 12.4H235.168C236.928 12.96 238.128 14.56 238.128 16.48H249.088C249.088 15.04 248.928 13.68 248.528 12.4C246.768 5.92 240.848 1.20001 233.808 1.20001H217.648C211.888 1.20001 206.528 4.24 203.728 9.28C202.368 11.68 201.648 14.4 201.648 17.2C201.648 20 202.368 22.72 203.728 25.12C204.368 26.24 205.088 27.2 205.888 28.08C208.928 31.28 213.168 33.2 217.648 33.2H232.848C235.488 33.2 237.568 35.36 237.568 38C237.568 40.64 235.488 42.8 232.848 42.8H215.488C213.808 42.24 212.608 40.64 212.608 38.72H201.648C201.648 40.16 201.808 41.52 202.128 42.8C203.968 49.28 209.888 54 216.928 54H232.848C238.528 54 243.888 50.96 246.688 46C248.128 43.52 248.848 40.8 248.848 38C248.848 35.2 248.128 32.48 246.688 30.08C243.888 25.12 238.528 22 232.848 22ZM279.14 1.36001C264.58 1.36001 252.82 13.2 252.82 27.68C252.82 42.24 264.58 54 279.14 54C293.62 54 305.46 42.24 305.46 27.68C305.46 13.2 293.62 1.36001 279.14 1.36001ZM294.42 27.68C294.42 36.16 287.54 43.04 279.14 43.04C270.66 43.04 263.78 36.16 263.78 27.68C263.78 19.28 270.66 12.4 279.14 12.4C287.54 12.4 294.42 19.28 294.42 27.68ZM313.523 54H324.723V36.16L313.523 24.96V54ZM345.123 1.12001V29.6L316.243 0.800003H313.523V2.16001V7.20001V13.92L324.723 25.12L332.403 32.8L345.683 46.08L353.603 54H356.323V1.12001H345.123ZM364.305 1.12001V54H375.505V1.12001H364.305ZM382.547 50.88L380.867 54H394.947L395.507 52.96L406.947 32.24L399.907 19.6L382.547 50.88ZM440.307 50.88L417.907 10.48L413.267 2.16001L412.787 1.04001H410.067L409.507 2.16001L404.947 10.48L404.387 11.52L411.427 24.24L411.587 24.56L416.787 33.92L427.347 52.96L427.907 54H441.987L440.307 50.88Z" fill="white"/>
</svg>
