<svg width="29" height="49" viewBox="0 0 29 49" fill="none" xmlns="http://www.w3.org/2000/svg">
<path d="M9.06699 26.983C8.92429 27.0957 8.85199 27.2427 8.84999 27.424C8.81869 29.884 8.82529 32.3433 8.86999 34.802C8.87069 34.8107 8.87929 34.9757 8.89599 35.297C8.90529 35.4817 8.90169 35.6663 8.88499 35.851C8.86499 36.0663 8.81099 36.2397 8.72299 36.371C8.59969 36.553 8.43299 36.6817 8.22299 36.757C8.10099 36.801 7.89969 36.826 7.61899 36.832C5.30769 36.88 3.31799 36.886 1.64999 36.85C0.963987 36.8353 0.622287 36.477 0.624987 35.775C0.660287 26.8463 0.651988 19.763 0.599988 14.525C0.597288 14.2557 0.635287 14.0187 0.713987 13.814C0.771287 13.6653 0.906988 13.4767 1.12099 13.248C1.30629 13.05 1.49399 12.8537 1.68399 12.659C5.04999 9.20831 8.40429 5.74599 11.747 2.27198C12.1843 1.81798 12.579 1.43765 12.931 1.13098C13.2797 0.828318 13.6217 0.840651 13.957 1.16798C14.3623 1.56265 14.7597 1.96531 15.149 2.37598C16.229 3.51265 17.3163 4.64198 18.411 5.76398C21.0937 8.51465 23.7727 11.269 26.448 14.027C26.982 14.577 27.506 15.137 28.02 15.707C28.1387 15.839 28.199 15.9937 28.201 16.171C28.2277 18.607 28.219 21.0583 28.175 23.525C28.115 26.8943 28.1047 31.9193 28.144 38.6C28.1473 39.1913 28.1453 39.8577 28.138 40.599C28.1147 42.865 28.124 45.131 28.166 47.397C28.174 47.8183 28.1317 48.1127 28.039 48.28C27.9063 48.5193 27.693 48.6437 27.399 48.653C27.243 48.6577 27.0203 48.6063 26.731 48.499C26.0897 48.2617 25.4517 48.015 24.817 47.759C20.9143 46.1843 17.022 44.5837 13.14 42.957C12.734 42.787 12.5247 42.698 12.512 42.69C12.3713 42.6027 12.2587 42.4863 12.174 42.341C12.108 42.2283 12.071 42.0773 12.063 41.888C12.0497 41.5847 12.047 41.2817 12.055 40.979C12.069 40.4463 12.0763 40.1437 12.077 40.071C12.099 34.0077 12.0983 29.8007 12.075 27.45C12.073 27.226 11.9863 27.0553 11.815 26.938C11.7103 26.8667 11.5427 26.814 11.312 26.78C10.8493 26.7113 10.384 26.7037 9.91599 26.757C9.90399 26.7583 9.80969 26.7653 9.63299 26.778C9.40829 26.7947 9.21969 26.863 9.06699 26.983ZM23.783 19.617C23.783 18.8781 23.4895 18.1695 22.967 17.647C22.4445 17.1245 21.7359 16.831 20.997 16.831C20.2581 16.831 19.5495 17.1245 19.027 17.647C18.5045 18.1695 18.211 18.8781 18.211 19.617C18.211 19.9829 18.2831 20.3451 18.4231 20.6832C18.5631 21.0212 18.7683 21.3283 19.027 21.587C19.2857 21.8457 19.5928 22.0509 19.9308 22.1909C20.2689 22.3309 20.6311 22.403 20.997 22.403C21.3629 22.403 21.7251 22.3309 22.0632 22.1909C22.4012 22.0509 22.7083 21.8457 22.967 21.587C23.2257 21.3283 23.4309 21.0212 23.5709 20.6832C23.7109 20.3451 23.783 19.9829 23.783 19.617Z" fill="white"/>
</svg>
